<svg width="30" height="30" viewBox="0 0 30 30" fill="none" xmlns="http://www.w3.org/2000/svg">
<path d="M14.9997 0C6.71567 0 0 6.74047 0 15.0551C0 22.1153 4.8431 28.0398 11.3764 29.667V19.6559H8.28343V15.0551H11.3764V13.0726C11.3764 7.94849 13.6869 5.5734 18.6992 5.5734C19.6496 5.5734 21.2894 5.76068 21.9602 5.94737V10.1176C21.6062 10.0803 20.9912 10.0616 20.2274 10.0616C17.768 10.0616 16.8177 10.9968 16.8177 13.4279V15.0551H21.7172L20.8754 19.6559H16.8177V30C24.2449 29.0997 30 22.7525 30 15.0551C29.9994 6.74047 23.2837 0 14.9997 0Z" fill="white"/>
</svg>
