<svg width="30" height="31" viewBox="0 0 30 31" fill="none" xmlns="http://www.w3.org/2000/svg">
<path d="M15.0088 2.70276C19.019 2.70276 19.4938 2.72034 21.0709 2.7907C22.5366 2.85519 23.3281 3.10143 23.8558 3.30663C24.5534 3.57631 25.0576 3.90463 25.5794 4.42642C26.1071 4.95407 26.4295 5.45241 26.6992 6.15009C26.9044 6.67774 27.1507 7.47508 27.2152 8.93492C27.2855 10.5179 27.3031 10.9928 27.3031 14.9971C27.3031 19.0072 27.2855 19.4821 27.2152 21.0592C27.1507 22.5249 26.9044 23.3164 26.6992 23.844C26.4295 24.5417 26.1012 25.0459 25.5794 25.5677C25.0518 26.0954 24.5534 26.4178 23.8558 26.6875C23.3281 26.8927 22.5308 27.1389 21.0709 27.2034C19.488 27.2738 19.0131 27.2914 15.0088 27.2914C10.9986 27.2914 10.5237 27.2738 8.94665 27.2034C7.48095 27.1389 6.68947 26.8927 6.16181 26.6875C5.46414 26.4178 4.95994 26.0895 4.43815 25.5677C3.91049 25.0401 3.58804 24.5417 3.31835 23.844C3.11315 23.3164 2.86691 22.5191 2.80242 21.0592C2.73207 19.4763 2.71448 19.0014 2.71448 14.9971C2.71448 10.9869 2.73207 10.512 2.80242 8.93492C2.86691 7.46922 3.11315 6.67774 3.31835 6.15009C3.58804 5.45241 3.91636 4.94821 4.43815 4.42642C4.9658 3.89877 5.46414 3.57631 6.16181 3.30663C6.68947 3.10143 7.48681 2.85519 8.94665 2.7907C10.5237 2.72034 10.9986 2.70276 15.0088 2.70276ZM15.0088 0C10.9341 0 10.4241 0.0175884 8.82353 0.0879421C7.22885 0.158296 6.1325 0.416259 5.18272 0.785616C4.19191 1.17256 3.35353 1.68263 2.52101 2.52101C1.68263 3.35353 1.17256 4.19191 0.785617 5.17686C0.416259 6.1325 0.158296 7.22298 0.0879422 8.81767C0.0175884 10.4241 0 10.9341 0 15.0088C0 19.0834 0.0175884 19.5935 0.0879422 21.1941C0.158296 22.7887 0.416259 23.8851 0.785617 24.8349C1.17256 25.8257 1.68263 26.6641 2.52101 27.4966C3.35353 28.3291 4.19191 28.845 5.17686 29.2261C6.1325 29.5955 7.22298 29.8534 8.81767 29.9238C10.4182 29.9941 10.9283 30.0117 15.0029 30.0117C19.0776 30.0117 19.5876 29.9941 21.1882 29.9238C22.7829 29.8534 23.8792 29.5955 24.829 29.2261C25.814 28.845 26.6523 28.3291 27.4849 27.4966C28.3174 26.6641 28.8333 25.8257 29.2144 24.8407C29.5837 23.8851 29.8417 22.7946 29.9121 21.1999C29.9824 19.5994 30 19.0893 30 15.0147C30 10.94 29.9824 10.4299 29.9121 8.82939C29.8417 7.23471 29.5837 6.13836 29.2144 5.18859C28.845 4.19191 28.335 3.35353 27.4966 2.52101C26.6641 1.68849 25.8257 1.17256 24.8407 0.791479C23.8851 0.422122 22.7946 0.164159 21.1999 0.093805C19.5935 0.0175884 19.0834 0 15.0088 0Z" fill="white"/>
<path d="M15.0088 7.2992C10.7524 7.2992 7.29919 10.7524 7.29919 15.0088C7.29919 19.2652 10.7524 22.7184 15.0088 22.7184C19.2652 22.7184 22.7184 19.2652 22.7184 15.0088C22.7184 10.7524 19.2652 7.2992 15.0088 7.2992ZM15.0088 20.0098C12.2474 20.0098 10.0078 17.7702 10.0078 15.0088C10.0078 12.2474 12.2474 10.0078 15.0088 10.0078C17.7702 10.0078 20.0098 12.2474 20.0098 15.0088C20.0098 17.7702 17.7702 20.0098 15.0088 20.0098Z" fill="white"/>
<path d="M24.8231 6.99427C24.8231 7.99095 24.0141 8.79416 23.0232 8.79416C22.0266 8.79416 21.2234 7.98509 21.2234 6.99427C21.2234 5.9976 22.0324 5.19439 23.0232 5.19439C24.0141 5.19439 24.8231 6.00346 24.8231 6.99427Z" fill="white"/>
</svg>
