<svg width="43" height="31" viewBox="0 0 43 31" fill="none" xmlns="http://www.w3.org/2000/svg">
<path d="M42.1009 4.73C41.8578 3.8152 41.3787 2.98029 40.7116 2.30884C40.0444 1.63739 39.2126 1.15294 38.2993 0.903977C34.9375 1.06792e-07 21.5 0 21.5 0C21.5 0 8.06253 1.06792e-07 4.70071 0.903977C3.78749 1.15294 2.95567 1.63739 2.2885 2.30884C1.62134 2.98029 1.14223 3.8152 0.899122 4.73C3.06244e-05 8.10648 3.05176e-05 15.1477 3.05176e-05 15.1477C3.05176e-05 15.1477 3.06244e-05 22.189 0.899122 25.5655C1.14223 26.4803 1.62134 27.3152 2.2885 27.9866C2.95567 28.6581 3.78749 29.1425 4.70071 29.3915C8.06253 30.2955 21.5 30.2955 21.5 30.2955C21.5 30.2955 34.9375 30.2955 38.2993 29.3915C39.2126 29.1425 40.0444 28.6581 40.7116 27.9866C41.3787 27.3152 41.8578 26.4803 42.1009 25.5655C43 22.189 43 15.1477 43 15.1477C43 15.1477 43 8.10648 42.1009 4.73Z" fill="white"/>
<path d="M17.1023 21.5416V8.75397L28.3409 15.1478L17.1023 21.5416Z" fill="black"/>
</svg>
